<svg width="38" height="30" viewBox="0 0 38 30" fill="none" xmlns="http://www.w3.org/2000/svg">
<path d="M31.8332 0.333328H6.1665C4.70781 0.333328 3.30887 0.912791 2.27742 1.94424C1.24597 2.97569 0.666504 4.37464 0.666504 5.83333V24.1667C0.666504 25.6253 1.24597 27.0243 2.27742 28.0557C3.30887 29.0872 4.70781 29.6667 6.1665 29.6667H31.8332C33.2919 29.6667 34.6908 29.0872 35.7223 28.0557C36.7537 27.0243 37.3332 25.6253 37.3332 24.1667V5.83333C37.3332 4.37464 36.7537 2.97569 35.7223 1.94424C34.6908 0.912791 33.2919 0.333328 31.8332 0.333328ZM31.8332 3.99999L19.9165 12.195C19.6378 12.3559 19.3217 12.4406 18.9998 12.4406C18.678 12.4406 18.3619 12.3559 18.0832 12.195L6.1665 3.99999H31.8332Z" fill="white"/>
</svg>
